# xmcd
#
# Track frame offsets: 
#        150
#        10016
#        23284
#        35784
#        42334
#        54144
#        67846
#        86136
#        91165
#        111019
#        134934
#        146740
#        164985
#        182063
#        197773
#        212616
#        228939
#        238637
#        260686
#        274514
#        280762
#        295910
#        309600
#        320298
#
# Disc length: 4481 seconds
#
# Revision: 0
# Processed by: cddbd v1.5.1PL0 Copyright (c) Steve Scherf et al.
# Submitted via: ExactAudioCopy v0.95a5
#
DISCID=5a117f18
DTITLE=Big Bill Broonzy - Trouble in Mind
DYEAR=2000
DGENRE=Blues
TTITLE0=Hey, Hey Baby
TTITLE1=Frankie and Johnny
TTITLE2=Trouble in Mind
TTITLE3=Joe Turner Blues, No. 2 (Blues of 1890)
TTITLE4=Mule-Ridin' Blues
TTITLE5=When will I get to be called a man
TTITLE6=Poor Bill Blues
TTITLE7=Key to the Highway
TTITLE8=Plow Hand Blues
TTITLE9=Diggin' my Potatoes
TTITLE10=When things go wrong with you (It hurts me too)
TTITLE11=C.C. Rider
TTITLE12=Saturday Evening Blues
TTITLE13=Shuffle Rag
TTITLE14=Southbound Train
TTITLE15=Hush, Somebody's calling me
TTITLE16=Louise
TTITLE17=Black, Brown and White [Spoken Introduction]
TTITLE18=Black, Brown and White [Sung]
TTITLE19=Willie Mae Blues
TTITLE20=This train [Spoken Introduction]
TTITLE21=This Train (Bound for Glory) [Sung]
TTITLE22=In the Evening [Spoken Introduction]
TTITLE23=In the Evening (When the sun goes down) [Sung]
EXTD=
EXTT0=
EXTT1=
EXTT2=
EXTT3=
EXTT4=
EXTT5=
EXTT6=
EXTT7=
EXTT8=
EXTT9=
EXTT10=
EXTT11=
EXTT12=
EXTT13=
EXTT14=
EXTT15=
EXTT16=
EXTT17=
EXTT18=
EXTT19=
EXTT20=
EXTT21=
EXTT22=
EXTT23=
PLAYORDER=
